<svg width="24" height="24" fill="none" xmlns="http://www.w3.org/2000/svg"><path d="M11 5a1 1 0 100 2h7a1 1 0 100-2h-7zm-1 5a1 1 0 011-1h2a1 1 0 110 2h-2a1 1 0 01-1-1zm1 3a1 1 0 000 2h2a1 1 0 100-2h-2zm-1 5a1 1 0 011-1h2a1 1 0 010 2h-2a1 1 0 01-1-1zm6-9a1 1 0 100 2h2a1 1 0 100-2h-2zm-1 5a1 1 0 011-1h2a1 1 0 010 2h-2a1 1 0 01-1-1zm1 3a1 1 0 000 2h2a1 1 0 100-2h-2z" fill="#fff"/><path fill-rule="evenodd" clip-rule="evenodd" d="M4.5 23H19c.925 0 1.685-.234 2.29-.637a3.632 3.632 0 001.23-1.416 4.72 4.72 0 00.42-1.314A3.92 3.92 0 0023 19V4a3 3 0 00-3-3H9a3 3 0 00-3 3v9H4a3 3 0 00-3 2.999v3c0 1.84.799 2.921 1.736 3.483A3.714 3.714 0 004.5 23zM21 4a1 1 0 00-1-1H9a1 1 0 00-1 1v15c0 .805-.153 1.465-.404 2H19c.575 0 .94-.14 1.18-.3.246-.165.422-.39.55-.647.162-.323.26-.697.27-1.06V4zM4 15h2v4c0 1.161-.451 1.58-.764 1.767a1.386 1.386 0 01-1.471 0C3.45 20.58 3 20.161 3 19v-3.001a1 1 0 011-1z" fill="#fff"/></svg>