<svg width="24" height="24" fill="none" xmlns="http://www.w3.org/2000/svg"><path d="M7 7a1 1 0 100-2 1 1 0 000 2zm1 7a1 1 0 11-2 0 1 1 0 012 0z" fill="#fff"/><path fill-rule="evenodd" clip-rule="evenodd" d="M19 1a3 3 0 013 3v4c0 .768-.289 1.47-.764 2 .475.53.764 1.232.764 2v4a3 3 0 01-3 3h-6v2h9a1 1 0 110 2H2a1 1 0 110-2h9v-2H5a3 3 0 01-3-3v-4c0-.768.289-1.47.764-2A2.989 2.989 0 012 8V4a3 3 0 013-3h14zM5 9h14a1 1 0 001-1V4a1 1 0 00-1-1H5a1 1 0 00-1 1v4a1 1 0 001 1zm0 2a1 1 0 00-1 1v4a1 1 0 001 1h14a1 1 0 001-1v-4a1 1 0 00-1-1H5z" fill="#fff"/></svg>