<svg width="24" height="24" fill="none" xmlns="http://www.w3.org/2000/svg"><path fill-rule="evenodd" clip-rule="evenodd" d="M8 1c3.866 0 7 1.567 7 3.5V6a1 1 0 01-1 1h-1c-1.27.648-3.041 1-5 1s-3.73-.352-5-1v1.5c0 .726 1.718 1.331 4 1.47.552.034 1 .478 1 1.03s-.448 1.004-1 .969c-1.557-.1-2.95-.433-4-.969v1.5c0 .726 1.718 1.331 4 1.47.552.034 1 .478 1 1.03s-.449 1.004-1 .965c-3.392-.243-6-1.702-6-3.465v-8C1 2.567 4.134 1 8 1zM3 4.5C3 3.672 5.239 3 8 3s5 .672 5 1.5S10.761 6 8 6s-5-.672-5-1.5z" fill="#fff"/><path fill-rule="evenodd" clip-rule="evenodd" d="M23 11.5C23 9.567 19.866 8 16 8s-7 1.567-7 3.5v8c0 1.933 3.134 3.5 7 3.5s7-1.567 7-3.5v-8zm-12 8c0 .828 2.239 1.5 5 1.5s5-.672 5-1.5V18c-1.27.648-3.041 1-5 1s-3.73-.352-5-1v1.5zm5-2.5c-2.761 0-5-.672-5-1.5V14c1.27.648 3.041 1 5 1s3.73-.352 5-1v1.5c0 .828-2.239 1.5-5 1.5zm0-7c-2.761 0-5 .672-5 1.5s2.239 1.5 5 1.5 5-.672 5-1.5-2.239-1.5-5-1.5z" fill="#fff"/></svg>