<svg width="24" height="24" fill="none" xmlns="http://www.w3.org/2000/svg"><path d="M9 11a1 1 0 012 0v6a1 1 0 01-2 0v-6zm5-1a1 1 0 00-1 1v6a1 1 0 102 0v-6a1 1 0 00-1-1z" fill="#EB4A4A"/><path fill-rule="evenodd" clip-rule="evenodd" d="M8.532 1a5 5 0 00-4.961 5.62L5.29 20.372A3 3 0 008.266 23h7.47a3 3 0 002.976-2.628l1.72-13.752A5 5 0 0015.47 1H8.532zm-2.83 4a3 3 0 012.83-2h6.938a3 3 0 012.83 2H5.701zm-.068 2l1.64 13.124a1 1 0 00.992.876h7.47a1 1 0 00.992-.876L18.368 7H5.634z" fill="#EB4A4A"/></svg>