<svg width="24" height="24" fill="none" xmlns="http://www.w3.org/2000/svg"><path d="M1 22a1 1 0 011-1h20a1 1 0 110 2H2a1 1 0 01-1-1z" fill="#02F7EA"/><path fill-rule="evenodd" clip-rule="evenodd" d="M18.306 1.879a3 3 0 00-4.243 0L3.389 12.553a3 3 0 00-.807 1.47l-.533 2.398a2 2 0 002.386 2.386l2.398-.533a3 3 0 001.47-.807L18.977 6.793a3 3 0 000-4.243l-.671-.671zm-2.829 1.414a1 1 0 011.414 0l.672.671a1 1 0 010 1.415L15.641 7.3l-2.085-2.086 1.921-1.921zm-3.336 3.336l-7.338 7.338a1 1 0 00-.269.49l-.533 2.398 2.398-.533a1 1 0 00.49-.27l7.338-7.338-2.086-2.085z" fill="#02F7EA"/></svg>