<svg width="24" height="24" fill="none" xmlns="http://www.w3.org/2000/svg"><path d="M7 12a1 1 0 110-2h10a1 1 0 110 2H7zm-1 3a1 1 0 001 1h6a1 1 0 100-2H7a1 1 0 00-1 1z" fill="#858585"/><path fill-rule="evenodd" clip-rule="evenodd" d="M7 1a1 1 0 00-1 1v1H4a2 2 0 00-2 2v14a4 4 0 004 4h12a4 4 0 004-4V5a2 2 0 00-2-2h-2V2a1 1 0 10-2 0v1h-3V2a1 1 0 10-2 0v1H8V2a1 1 0 00-1-1zm9 4h-3v1a1 1 0 11-2 0V5H8v1a1 1 0 01-2 0V5H5a1 1 0 00-1 1v13a2 2 0 002 2h12a2 2 0 002-2V6a1 1 0 00-1-1h-1v1a1 1 0 11-2 0V5z" fill="#858585"/></svg>