<svg width="24" height="24" fill="none" xmlns="http://www.w3.org/2000/svg"><path fill-rule="evenodd" clip-rule="evenodd" d="M12 23c6.075 0 11-4.925 11-11S18.075 1 12 1 1 5.925 1 12s4.925 11 11 11zm-8.883-9.586A8.997 8.997 0 019.42 3.382c-.151.813-.499 1.447-.856 2.099-.066.119-.131.24-.196.36-.25.47-.556 1.089-.556 1.792 0 .773.358 1.45.98 2.074.686.685.827 1.233.986 1.852.022.087.045.176.07.267.103.378.267.89.703 1.326.436.436 1.026.683 1.753.829 2.26.452 2.966 1.295 3.302 1.966.03.06.085.26.115.687.028.395.029.857.029 1.366v.02c0 .486 0 1.015.034 1.489.014.193.034.405.071.618a8.936 8.936 0 01-2.955.822 3.282 3.282 0 00-.6-1.299c-.477-.636-1.23-1.222-2.2-1.95-.26-.195-.33-.376-.354-.59-.032-.293.026-.626.119-1.145l.005-.032c.077-.432.193-1.081.046-1.699-.181-.76-.706-1.327-1.545-1.662-1.574-.63-3.282-.1-4.415.416-.305.139-.587.285-.839.426zm.558 1.994a9.004 9.004 0 007.065 5.498c-.266-.383-.758-.795-1.84-1.606-.74-.555-1.064-1.257-1.142-1.973-.065-.592.043-1.192.12-1.616l.018-.097c.091-.514.112-.758.075-.916l-.002-.006c-.007-.038-.027-.138-.34-.264-.773-.308-1.815-.089-2.845.38a9.627 9.627 0 00-1.109.6zM12 3.007c-.175 0-.348.005-.52.015-.118 1.543-.738 2.659-1.173 3.443a21.81 21.81 0 00-.175.318c-.25.468-.32.694-.32.85 0 .086.018.283.395.66 1.086 1.086 1.345 2.115 1.512 2.78l.058.226c.085.31.14.39.188.44.048.048.208.176.731.28 2.74.548 4.034 1.705 4.698 3.034.22.44.29.99.322 1.438.034.474.034 1.003.034 1.488V18c0 .324 0 .628.008.909a8.974 8.974 0 003.227-7.308c-.732.02-1.304-.267-1.754-.493-.717-.359-1.417-.608-2.231-.608-.752 0-1.39-.15-1.898-.517-.508-.368-.754-.857-.905-1.237a15.337 15.337 0 01-.206-.548c-.162-.451-.236-.66-.546-.866-.527-.352-.937-.84-.996-1.51-.05-.573.187-1.08.344-1.394.069-.138.136-.266.2-.388.175-.335.325-.622.416-.923A9.061 9.061 0 0012 3.007zm8.657 6.549a4.81 4.81 0 01-.585-.263l-.005-.002c-.66-.33-1.58-.791-3.067-.791-.498 0-.673-.1-.727-.139-.054-.039-.121-.112-.22-.357-.023-.06-.049-.137-.08-.228-.172-.52-.495-1.493-1.418-2.108-.147-.098-.046-.2.027-.346.035-.07.079-.15.128-.242.186-.346.452-.838.623-1.435a9.015 9.015 0 015.324 5.911z" fill="#858585"/></svg>