<svg width="24" height="24" fill="none" xmlns="http://www.w3.org/2000/svg"><path d="M13.5 16.585a1.5 1.5 0 11-3 0 1.5 1.5 0 013 0z" fill="#858585"/><path fill-rule="evenodd" clip-rule="evenodd" d="M5.942 10a17.98 17.98 0 01-.005-.406c0-.887.066-2.09.337-3.31.269-1.211.758-2.521 1.666-3.542C8.88 1.686 10.213 1 12 1c1.787 0 3.12.685 4.06 1.742.908 1.021 1.397 2.33 1.666 3.541.271 1.22.337 2.424.337 3.31 0 .144-.002.28-.005.408A3 3 0 0121 13v7a3 3 0 01-3 3H6a3 3 0 01-3-3v-7a3 3 0 012.942-3zm10.115 0c.004-.125.006-.261.006-.406 0-.801-.06-1.848-.29-2.877-.23-1.04-.616-1.98-1.208-2.646C14.005 3.44 13.213 3 12 3c-1.213 0-2.004.44-2.565 1.07-.592.667-.978 1.607-1.209 2.647-.229 1.03-.289 2.076-.289 2.877 0 .145.002.28.006.406h8.114zM19 13a1 1 0 00-1-1H6a1 1 0 00-1 1v7a1 1 0 001 1h12a1 1 0 001-1v-7z" fill="#858585"/></svg>