<svg width="98" height="39" fill="none" xmlns="http://www.w3.org/2000/svg"><path d="M15.48 2.64c1.6 1.467 2.4 3.4 2.4 5.8s-.8 4.333-2.4 5.8c-1.573 1.467-3.92 2.2-7.04 2.2H2.8V28H0V.4h8.44c3.093 0 5.44.747 7.04 2.24zM2.8 14.16h5.64c4.4 0 6.6-1.907 6.6-5.72 0-3.84-2.2-5.76-6.6-5.76H2.8v11.48zm22.46-8v3.6c1.2-2.667 3.454-4 6.76-4v2.92h-.8c-1.92 0-3.4.52-4.44 1.56-1.012 1.04-1.52 2.827-1.52 5.36V28h-2.8V6.16h2.8zm20.462 20c2.267 0 4.227-.813 5.88-2.44 1.654-1.627 2.48-3.84 2.48-6.64 0-2.827-.786-5.04-2.36-6.64C50.15 8.813 48.23 8 45.962 8c-2.266 0-4.16.8-5.68 2.4-1.52 1.6-2.28 3.827-2.28 6.68 0 2.853.72 5.08 2.16 6.68 1.44 1.6 3.294 2.4 5.56 2.4zm0 2.24c-3.12 0-5.666-1.04-7.64-3.12-1.946-2.08-2.92-4.8-2.92-8.16 0-3.387 1.04-6.12 3.12-8.2 2.08-2.107 4.68-3.16 7.8-3.16s5.72 1.053 7.8 3.16c2.08 2.08 3.12 4.8 3.12 8.16 0 3.333-1.093 6.053-3.28 8.16-2.186 2.107-4.853 3.16-8 3.16zm30.68-22.24l-7.04 10.92 7 10.92h-3.2l-5.64-8.76-5.16 8.76h-3.2l7-10.92-7-10.92h3.2l5.64 8.8 5.2-8.8h3.2zM86.2 27.68L77.52 6.16h3l7.2 18.56 7.2-18.56h2.84l-12.96 32h-2.84l4.24-10.48z" fill="#fff"/></svg>