<svg width="25" height="24" fill="none" xmlns="http://www.w3.org/2000/svg"><path fill-rule="evenodd" clip-rule="evenodd" d="M3.75 6.224C3.504 4.82 4.877 3.646 6.328 4.021l1.1.283c.871.225 1.796-.113 2.281-.835l1.053-1.565c.81-1.205 2.67-1.205 3.48 0l1.053 1.565c.485.722 1.41 1.06 2.282.835l1.1-.283c1.45-.375 2.823.8 2.576 2.203l-.271 1.539c-.14.79.247 1.581.973 1.994l1.004.57c1.335.758 1.335 2.588 0 3.346l-1.004.57c-.726.413-1.112 1.204-.973 1.994l.27 1.539c.248 1.404-1.125 2.578-2.576 2.203l-1.099-.283c-.871-.225-1.797.113-2.282.835l-1.053 1.565c-.81 1.205-2.67 1.205-3.48 0l-1.053-1.565c-.485-.722-1.41-1.06-2.282-.835l-1.099.283c-1.45.375-2.824-.8-2.576-2.203l.27-1.539c.14-.79-.246-1.581-.972-1.994l-1.005-.57c-1.335-.758-1.335-2.588 0-3.346l1.005-.57c.726-.413 1.112-1.204.973-1.994L3.75 6.224zm5.658-.078H6.315v2.927L3.22 12l3.094 2.927v2.927h3.093l3.093 2.927 3.094-2.927h3.093v-2.927L21.78 12l-3.093-2.927V6.146h-3.093L12.5 3.22 9.408 6.146z" fill="#fff"/><path d="M17.138 12c0 2.425-2.077 4.39-4.64 4.39-2.562 0-4.64-1.965-4.64-4.39s2.078-4.39 4.64-4.39c2.563 0 4.64 1.965 4.64 4.39zm-7.22 0c0 1.349 1.155 2.442 2.58 2.442 1.426 0 2.581-1.093 2.581-2.442 0-1.349-1.155-2.442-2.58-2.442-1.426 0-2.581 1.093-2.581 2.442z" fill="#fff"/></svg>