<svg width="24" height="24" fill="none" xmlns="http://www.w3.org/2000/svg"><path d="M20 14.998a1 1 0 100-2 1 1 0 000 2z" fill="#02F7EA"/><path fill-rule="evenodd" clip-rule="evenodd" d="M16.775.984a3 3 0 013.828 2.332l.333 1.831A3.001 3.001 0 0123 7.998v2.764c.614.55 1 1.348 1 2.236v2a2.99 2.99 0 01-1 2.236v2.764a3 3 0 01-3 3H4a3 3 0 01-3-3v-12A3 3 0 013.501 5.04L16.775.984zM21 15.998a1 1 0 001-1v-2a1 1 0 00-1-1h-3a1 1 0 00-1 1v2a1 1 0 001 1h3zm0 2v2a1 1 0 01-1 1H4a1 1 0 01-1-1v-12a1 1 0 011-1h16a1 1 0 011 .993v2.007h-3a3 3 0 00-3 3v2a3 3 0 003 3h3zM18.695 3.605l.246 1.393H10l7.423-2.177a1 1 0 011.272.784z" fill="#02F7EA"/></svg>